<?xml version="1.0" encoding="utf-8"?>
<svg viewBox="0 0 322.401 573.762" xmlns="http://www.w3.org/2000/svg">
  <defs/>
  <g transform="matrix(1, 0, 0, 1, 12.959999, 84.325724)">
    <g>
      <text style="fill: rgb(51, 51, 51); font-family: Arial, sans-serif; font-size: 12px; white-space: pre;" x="167.108" y="97.991" transform="matrix(1, 0, 0, 1, 74.501734, 239.291328)">阿修羅<tspan x="167.10800170898438" dy="1em">​</tspan>餓鬼<tspan x="167.10800170898438" dy="1em">​</tspan>畜生<tspan x="167.10800170898438" dy="1em">​</tspan>地獄<tspan x="167.10800170898438" dy="1em">​</tspan></text>
      <rect x="235.296" y="321.002" width="51.132" height="55.941" style="stroke: rgb(0, 0, 0); fill: none; stroke-dasharray: 10;"/>
    </g>
    <text style="fill: rgb(51, 51, 51); font-family: Arial, sans-serif; font-size: 14px; white-space: pre;" x="239.61" y="316.217">四惡趣</text>
  </g>
  <g transform="matrix(1, 0, 0, 1, 33.464356, 77.339137)">
    <rect x="152.173" y="311.683" width="58.089" height="77.635" style="stroke: rgb(0, 0, 0); fill: none; stroke-dasharray: 10;"/>
    <text style="fill: rgb(51, 51, 51); font-family: Arial, sans-serif; font-size: 14px; white-space: pre;" x="110.177" y="324.562" transform="matrix(1, 0, 0, 1, 27.994666, -0.194794)">欲<tspan x="110.177001953125" dy="1em">​</tspan>界<tspan x="110.177001953125" dy="1em">​</tspan>天</text>
    <text style="fill: rgb(51, 51, 51); font-family: Arial, sans-serif; font-size: 12px; white-space: pre;" x="167.108" y="97.991" transform="matrix(1, 0, 0, 1, -10.093256, 228.684547)">他化自在<tspan x="167.10800170898438" dy="1em">​</tspan>化樂<tspan x="167.10800170898438" dy="1em">​</tspan>兜率<tspan x="167.10800170898438" dy="1em">​</tspan>夜摩<tspan x="167.10800170898438" dy="1em">​</tspan>帝釋33<tspan x="167.10800170898438" dy="1em">​</tspan>四大王<tspan x="167.10800170898438" dy="1em">​</tspan></text>
  </g>
  <text style="fill: rgb(51, 51, 51); font-family: Arial, sans-serif; font-size: 14px; white-space: pre;" x="29.703" y="212.871" transform="matrix(1, 0, 0, 1, 111.480815, -35.868425)">色<tspan x="29.702999114990234" dy="1em">​</tspan>界</text>
  <text style="fill: rgb(51, 51, 51); font-family: Arial, sans-serif; font-size: 12px; white-space: pre;" x="167.108" y="97.991" transform="matrix(1, 0, 0, 1, -4.802002, -48.769571)">阿羅漢道    果<tspan x="167.10800170898438" dy="1em">​</tspan>斯陀含道    果<tspan x="167.10800170898438" dy="1em">​</tspan>阿那含道    果<tspan x="167.10800170898438" dy="1em">​</tspan>須陀洹道    果</text>
  <text style="fill: rgb(51, 51, 51); font-family: Arial, sans-serif; font-size: 14px; white-space: pre;" x="26.609" y="152.228" transform="matrix(1, 0, 0, 1, 113.508853, -42.719629)">無<tspan x="26.608999252319336" dy="1em">​</tspan>色<tspan x="26.608999252319336" dy="1em">​</tspan>界</text>
  <text style="fill: rgb(51, 51, 51); font-family: Arial, sans-serif; font-size: 14px; white-space: pre;" x="27.847" y="98.392" transform="matrix(1, 0, 0, 1, 112.61668, -52.602201)">出<tspan x="27.847000122070312" dy="1em">​</tspan>世<tspan x="27.847000122070312" dy="1em">​</tspan>間</text>
  <text style="fill: rgb(51, 51, 51); font-family: Arial, sans-serif; font-size: 14px; white-space: pre;" x="169.517" y="27.564">善心</text>
  <text style="fill: rgb(51, 51, 51); font-family: Arial, sans-serif; font-size: 14px; white-space: pre;" x="214.099" y="27.564">果報</text>
  <rect x="137.804" y="31.971" width="104.293" height="61.447" style="fill: none; stroke: rgb(0, 0, 0);"/>
  <text style="fill: rgb(51, 51, 51); font-family: Arial, sans-serif; font-size: 14px; white-space: pre;" x="246.838" y="27.564">唯作</text>
  <rect x="138.178" y="93.418" width="140.658" height="63.046" style="stroke: rgb(0, 0, 0); fill: none;"/>
  <text style="fill: rgb(51, 51, 51); font-family: Arial, sans-serif; font-size: 12px; white-space: pre;" x="167.108" y="97.991" transform="matrix(1, 0, 0, 1, -3.802002, 12.458249)">非想非非想處<tspan x="167.10800170898438" dy="1em">​</tspan>無所有處<tspan x="167.10800170898438" dy="1em">​</tspan>識無邊處<tspan x="167.10800170898438" dy="1em">​</tspan>空無邊處</text>
  <rect x="138.118" y="156.464" width="140.718" height="69.215" style="stroke: rgb(0, 0, 0); fill: none;"/>
  <path style="fill: rgb(216, 216, 216); stroke: rgb(0, 0, 0); stroke-dasharray: 2; transform-box: fill-box; transform-origin: 50% 50%;" d="M 216.459 31.971 L 216.258 93.418"/>
  <path style="fill: rgb(216, 216, 216); stroke: rgb(0, 0, 0); stroke-dasharray: 2; transform-origin: 242.41px 159.547px;" d="M 242.727 93.418 L 242.097 225.679"/>
  <path style="fill: rgb(216, 216, 216); stroke: rgb(0, 0, 0); paint-order: fill; stroke-dasharray: 2; transform-origin: 216.459px 159.547px;" d="M 216.459 225.677 L 216.459 93.416" transform="matrix(-1, 0, 0, -1, -0.000002, 0.000005)"/>
  <text style="fill: rgb(51, 51, 51); font-family: Arial, sans-serif; font-size: 12px; white-space: pre;" x="167.108" y="97.991" transform="matrix(1, 0, 0, 1, -5.802002, 37.115831)"><tspan x="167.10800170898438" dy="1em">​</tspan><tspan x="167.10800170898438" dy="1em">​</tspan><tspan x="167.10800170898438" dy="1em">​</tspan>捨,一境性<tspan x="167.10800170898438" dy="1em">​</tspan>樂,一境性<tspan x="167.10800170898438" dy="1em">​</tspan>喜,樂,一境性<tspan x="167.10800170898438" dy="1em">​</tspan>伺,喜,樂,一境性<tspan x="167.10800170898438" dy="1em">​</tspan>尋,伺,喜,樂,一境性</text>
  <text style="fill: rgb(51, 51, 51); font-family: Arial, sans-serif; font-size: 12px; white-space: pre;" x="167.108" y="97.991" transform="matrix(1, 0, 0, 1, 98.915332, 232.551337)">色究竟<tspan x="167.10800170898438" dy="1em">​</tspan>善見<tspan x="167.10800170898438" dy="1em">​</tspan>善現<tspan x="167.10800170898438" dy="1em">​</tspan>無熱<tspan x="167.10800170898438" dy="1em">​</tspan>無煩<tspan x="167.10800170898438" dy="1em">​</tspan></text>
  <rect x="247.256" y="317.231" width="54.762" height="67.432" style="stroke: rgb(0, 0, 0); fill: none; stroke-dasharray: 2;"/>
  <text style="fill: rgb(51, 51, 51); font-family: Arial, sans-serif; font-size: 14px; white-space: pre;" x="136.179" y="139.065" transform="matrix(0.807463, 0, 0, 0.77402, 34.158341, -21.365302)">8</text>
  <text style="fill: rgb(51, 51, 51); font-family: Arial, sans-serif; font-size: 5.20482px; white-space: pre;" transform="matrix(2.417104, 0, 0, 2.305556, -579.487322, -234.283195)" x="301.492" y="166.211" dx="-4.322" dy="1.297">12</text>
  <text style="fill: rgb(51, 51, 51); font-family: Arial, sans-serif; font-size: 5.20482px; white-space: pre;" transform="matrix(2.417104, 0, 0, 2.305556, -577.112444, -179.353262)" x="301.492" y="166.211" dx="-4.322" dy="1.297">15</text>
  <text style="fill: rgb(51, 51, 51); font-family: Arial, sans-serif; font-size: 14px; white-space: pre;" x="46.483" y="29.581">無因</text>
  <text style="fill: rgb(51, 51, 51); font-family: Arial, sans-serif; font-size: 12px; white-space: pre;" x="167.108" y="97.991" transform="matrix(1, 0, 0, 1, -93.973994, -59.541761)"><tspan x="167.10800170898438" dy="1em">​</tspan><tspan x="167.10800170898438" dy="1em">​</tspan><tspan x="167.10800170898438" dy="1em">​</tspan><tspan x="167.10800170898438" dy="1em">​</tspan><tspan x="167.10800170898438" dy="1em">​</tspan><tspan x="167.10800170898438" dy="1em">​</tspan>身識(樂受)<tspan x="167.10800170898438" dy="1em">​</tspan><tspan x="167.10800170898438" dy="1em">​</tspan><tspan x="167.10800170898438" dy="1em">​</tspan>悅俱推度</text>
  <rect x="10.042" y="13.618" width="120.076" height="209.876" style="stroke: rgb(0, 0, 0); fill: none;"/>
  <path style="fill: rgb(216, 216, 216); stroke: rgb(0, 0, 0);" d="M 71.641 35.102 L 71.641 159.61"/>
  <text style="fill: rgb(51, 51, 51); font-family: Arial, sans-serif; font-size: 12px; white-space: pre;" x="167.108" y="97.991" transform="matrix(1, 0, 0, 1, -155.375981, -35.19589)">眼識*2<tspan x="167.10800170898438" dy="1em">​</tspan>耳識*2<tspan x="167.10800170898438" dy="1em">​</tspan>鼻識*2<tspan x="167.10800170898438" dy="1em">​</tspan>舌識*2<tspan x="167.10800170898438" dy="1em">​</tspan>身識(苦受)<tspan x="167.10800170898438" dy="1em">​</tspan>捨俱領受*2<tspan x="167.10800170898438" dy="1em">​</tspan> (意界)<tspan x="167.10800170898438" dy="1em">​</tspan>捨俱推度*2<tspan x="167.10800170898438" dy="1em">​</tspan> (意識界)</text>
  <text style="fill: rgb(51, 51, 51); font-family: Arial, sans-serif; font-size: 14px; white-space: pre;" x="73.134" y="49.069">善果報</text>
  <text style="fill: rgb(51, 51, 51); font-family: Arial, sans-serif; font-size: 14px; white-space: pre;" x="9.042" y="49.069">不善果報</text>
  <text style="fill: rgb(51, 51, 51); font-family: Arial, sans-serif; font-size: 5.20482px; white-space: pre;" transform="matrix(2.417104, 0, 0, 2.305556, -641.872639, -358.035838)" x="301.492" y="166.211" dx="-4.322" dy="1.297">18</text>
  <text style="white-space: pre; fill: rgb(51, 51, 51); font-family: Arial, sans-serif; font-size: 28px;" x="248.128" y="63.37">89心</text>
  <rect x="137.591" y="227.317" width="140.837" height="79.474" style="stroke: rgb(0, 0, 0); fill: none;"/>
  <path style="fill: rgb(216, 216, 216); stroke: rgb(0, 0, 0); stroke-dasharray: 2; transform-origin: 252.84px 265.558px;" d="M 253.196 301.634 L 252.488 229.481" transform="matrix(-1, 0, 0, -1, 0.000021, -0.000036)"/>
  <path style="fill: rgb(216, 216, 216); stroke: rgb(0, 0, 0); stroke-dasharray: 2; transform-origin: 227.753px 265.516px;" d="M 227.913 301.55 L 227.597 229.481" transform="matrix(-1, 0, 0, -1, 0.000014, 0.000024)"/>
  <text style="fill: rgb(51, 51, 51); font-family: Arial, sans-serif; font-size: 14px; white-space: pre;" x="29.703" y="212.871" transform="matrix(1, 0, 0, 1, 110.88805, 29.507115)">欲<tspan x="29.702999114990234" dy="1em">​</tspan>界<tspan x="29.702999114990234" dy="1em">​</tspan>有<tspan x="29.702999114990234" dy="1em">​</tspan>因</text>
  <text style="fill: rgb(51, 51, 51); font-family: Arial, sans-serif; font-size: 5.20482px; white-space: pre;" transform="matrix(2.417104, 0, 0, 2.305556, -578.172808, -85.988848)" x="301.492" y="166.211" dx="-4.322" dy="1.297">24</text>
  <text style="fill: rgb(51, 51, 51); font-family: Arial, sans-serif; font-size: 14px; white-space: pre;" x="29.703" y="212.871" transform="matrix(1, 0, 0, 1, 230.292793, 27.963883)">大<tspan x="29.702999114990234" dy="1em">​</tspan>唯<tspan x="29.702999114990234" dy="1em">​</tspan>作<tspan x="29.702999114990234" dy="1em">​</tspan>心</text>
  <text style="fill: rgb(51, 51, 51); font-family: Arial, sans-serif; font-size: 14px; white-space: pre; transform-box: fill-box; transform-origin: -149.35% 37.7667%;" x="29.703" y="212.871" transform="matrix(1, 0, 0, 1, 202.868552, 28.168919)">大<tspan x="29.702999114990234" dy="1em">​</tspan>果<tspan x="29.702999114990234" dy="1em">​</tspan>報<tspan x="29.702999114990234" dy="1em">​</tspan>心</text>
  <text style="fill: rgb(51, 51, 51); font-family: Arial, sans-serif; font-size: 5.20482px; white-space: pre;" transform="matrix(2.417104, 0, 0, 2.305556, -482.560989, -91.948832)" x="301.492" y="166.211" dx="-4.322" dy="1.297">8</text>
  <text style="fill: rgb(51, 51, 51); font-family: Arial, sans-serif; font-size: 5.20482px; white-space: pre;" transform="matrix(2.417104, 0, 0, 2.305556, -460.651198, -90.434222)" x="301.492" y="166.211" dx="-4.322" dy="1.297">8</text>
  <text style="fill: rgb(51, 51, 51); font-family: Arial, sans-serif; font-size: 12px; white-space: pre;" x="167.108" y="97.991" transform="matrix(1, 0, 0, 1, -8.605995, 166.544988)">悅俱/捨俱<tspan x="167.10800170898438" dy="1em">​</tspan>智相應/不<tspan x="167.10800170898438" dy="1em">​</tspan>無行/有行<tspan x="167.10800170898438" dy="1em">​</tspan></text>
  <text style="fill: rgb(51, 51, 51); font-family: Arial, sans-serif; font-size: 5.20482px; white-space: pre;" transform="matrix(2.417104, 0, 0, 2.305556, -515.331009, -142.279103)" x="301.492" y="166.211" dx="-4.322" dy="1.297">8</text>
  <text style="fill: rgb(51, 51, 51); font-family: Arial, sans-serif; font-size: 14px; white-space: pre; transform-origin: 138.561px 254.963px;" x="159.471" y="245.855">大善心</text>
  <rect x="16.732" y="228.078" width="106.149" height="155.77" style="stroke: rgb(0, 0, 0); fill: none;"/>
  <path style="fill: rgb(216, 216, 216); stroke: rgb(0, 0, 0);" d="M 13.414 35.102 L 122.132 34.766"/>
  <text style="fill: rgb(51, 51, 51); font-family: Arial, sans-serif; font-size: 12px; white-space: pre;" x="167.108" y="97.991" transform="matrix(1, 0, 0, 1, -153.542989, 96.404147)">五門轉向(意界)<tspan x="167.10800170898438" dy="1em">​</tspan>意門轉向(意識界)<tspan x="167.10800170898438" dy="1em">​</tspan>生笑心(意識界)</text>
  <text style="fill: rgb(51, 51, 51); font-family: Arial, sans-serif; font-size: 5.20482px; white-space: pre;" transform="matrix(2.417104, 0, 0, 2.305556, -603.158831, -339.109385)" x="301.492" y="166.211" dx="-4.322" dy="1.297">8</text>
  <text style="fill: rgb(51, 51, 51); font-family: Arial, sans-serif; font-size: 5.20482px; white-space: pre;" transform="matrix(2.417104, 0, 0, 2.305556, -654.684346, -339.109385)" x="301.492" y="166.211" dx="-4.322" dy="1.297">7</text>
  <text style="fill: rgb(51, 51, 51); font-family: Arial, sans-serif; font-size: 5.20482px; white-space: pre;" transform="matrix(2.417104, 0, 0, 2.305556, -614.527911, -208.354361)" x="301.492" y="166.211" dx="-4.322" dy="1.297">3</text>
  <path style="fill: rgb(216, 216, 216); stroke: rgb(0, 0, 0);" d="M 13.565 164.174 L 123.018 163.348"/>
  <text style="fill: rgb(51, 51, 51); font-family: Arial, sans-serif; font-size: 14px; white-space: pre;" x="38.953" y="179.824">無因唯作</text>
  <text style="fill: rgb(51, 51, 51); font-family: Arial, sans-serif; font-size: 14px; white-space: pre; transform-origin: 28.698px 252.599px;" x="49.608" y="243.491">不善心</text>
  <path style="fill: rgb(216, 216, 216); stroke: rgb(0, 0, 0);" d="M 16.118 343.32 L 122.881 342.644"/>
  <path style="fill: rgb(216, 216, 216); stroke: rgb(0, 0, 0);" d="M 16.732 298.982 L 122.881 298.247"/>
  <text style="fill: rgb(51, 51, 51); font-family: Arial, sans-serif; font-size: 12px; white-space: pre;" x="167.108" y="97.991" transform="matrix(1, 0, 0, 1, -146.542592, 165.61498)">貪<tspan x="167.10800170898438" dy="1em">​</tspan>根</text>
  <text style="fill: rgb(51, 51, 51); font-family: Arial, sans-serif; font-size: 12px; white-space: pre;" x="167.108" y="97.991" transform="matrix(1, 0, 0, 1, -146.542592, 216.596076)">瞋<tspan x="167.10800170898438" dy="1em">​</tspan>根</text>
  <text style="fill: rgb(51, 51, 51); font-family: Arial, sans-serif; font-size: 12px; white-space: pre;" x="167.108" y="97.991" transform="matrix(1, 0, 0, 1, -146.542592, 257.799507)">痴<tspan x="167.10800170898438" dy="1em">​</tspan>根</text>
  <text style="fill: rgb(51, 51, 51); font-family: Arial, sans-serif; font-size: 12px; white-space: pre;" x="167.108" y="97.991" transform="matrix(1, 0, 0, 1, -121.68198, 165.61498)">悅俱/捨俱<tspan x="167.10800170898438" dy="1em">​</tspan>邪見相應/不<tspan x="167.10800170898438" dy="1em">​</tspan>無行/有行<tspan x="167.10800170898438" dy="1em">​</tspan></text>
  <text style="fill: rgb(51, 51, 51); font-family: Arial, sans-serif; font-size: 5.20482px; white-space: pre;" transform="matrix(2.417104, 0, 0, 2.305556, -623.520954, -142.324543)" x="301.492" y="166.211" dx="-4.322" dy="1.297">12</text>
  <text style="fill: rgb(51, 51, 51); font-family: Arial, sans-serif; font-size: 5.20482px; white-space: pre;" transform="matrix(2.417104, 0, 0, 2.305556, -694.723898, -93.372851)" x="301.492" y="166.211" dx="-4.322" dy="1.297">8</text>
  <text style="fill: rgb(51, 51, 51); font-family: Arial, sans-serif; font-size: 5.20482px; white-space: pre;" transform="matrix(2.417104, 0, 0, 2.305556, -694.723898, -46.104898)" x="301.492" y="166.211" dx="-4.322" dy="1.297">2</text>
  <text style="fill: rgb(51, 51, 51); font-family: Arial, sans-serif; font-size: 5.20482px; white-space: pre;" transform="matrix(2.417104, 0, 0, 2.305556, -694.723898, -4.901415)" x="301.492" y="166.211" dx="-4.322" dy="1.297">2</text>
  <text style="fill: rgb(51, 51, 51); font-family: Arial, sans-serif; font-size: 12px; white-space: pre;" x="167.108" y="97.991" transform="matrix(1, 0, 0, 1, -121.68198, 219.493262)">憂俱瞋恚相應<tspan x="167.10800170898438" dy="1em">​</tspan>無行/有行<tspan x="167.10800170898438" dy="1em">​</tspan></text>
  <text style="fill: rgb(51, 51, 51); font-family: Arial, sans-serif; font-size: 12px; white-space: pre;" x="167.108" y="97.991" transform="matrix(1, 0, 0, 1, -121.68198, 262.311623)">捨俱<tspan x="167.10800170898438" dy="1em">​</tspan>疑/掉舉相應<tspan x="167.10800170898438" dy="1em">​</tspan><tspan x="167.10800170898438" dy="1em">​</tspan></text>
  <text style="fill: rgb(51, 51, 51); font-family: Arial, sans-serif; font-size: 12px; white-space: pre;" x="167.108" y="97.991" transform="matrix(1, 0, 0, 1, -28.468026, 222.940726)"><tspan x="167.10800170898438" dy="1em">​</tspan><tspan x="167.10800170898438" dy="1em">​</tspan>四:廣果 無想有情   淨居<tspan x="167.10800170898438" dy="1em">​</tspan>三:少淨 無量淨 遍淨<tspan x="167.10800170898438" dy="1em">​</tspan>二:少光 無量光 光音<tspan x="167.10800170898438" dy="1em">​</tspan>初:梵眾 梵輔    大梵</text>
  <rect x="137.591" y="333.274" width="126.663" height="50.319" style="stroke: rgb(0, 0, 0); fill: none; stroke-dasharray: 8;"/>
  <text style="fill: rgb(51, 51, 51); font-family: Arial, sans-serif; font-size: 14px; white-space: pre;" x="141.64" y="330.233">色界四禪天</text>
  <ellipse style="stroke: rgb(0, 0, 0); fill: rgb(64, 255, 0);" cx="23.785" cy="398.73" rx="4.581" ry="5.817"/>
  <text style="fill: rgb(51, 51, 51); font-family: Arial, sans-serif; font-size: 12px; white-space: pre;" x="33.907" y="431.38">速行</text>
  <ellipse style="stroke: rgb(0, 0, 0); fill: rgb(255, 0, 0);" cx="233.378" cy="482.891" rx="4.581" ry="5.817"/>
  <text style="fill: rgb(51, 51, 51); font-family: Arial, sans-serif; font-size: 12px; white-space: pre;" x="33.87" y="401.886">有分,結生,死亡</text>
  <text style="fill: rgb(51, 51, 51); font-family: Arial, sans-serif; font-size: 12px; white-space: pre;" x="158.503" y="563.054" transform="matrix(0.9999999999999999, 0, 0, 0.9999999999999999, 99.13662359418038, 0.0021323975719838018)">廣大心</text>
  <ellipse style="stroke: rgb(0, 0, 0); fill: rgb(54, 0, 255);" cx="208.059" cy="483.013" rx="4.581" ry="5.817"/>
  <text style="fill: rgb(51, 51, 51); font-family: Arial, sans-serif; font-size: 12px; white-space: pre;" x="33.907" y="465.484">領受</text>
  <text style="fill: rgb(51, 51, 51); font-family: Arial, sans-serif; font-size: 12px; white-space: pre;" x="34.907" y="514.972" transform="matrix(1, 0, 0, 1, 91.268809, -61.487493)"><tspan x="34.90700149536133" dy="1em">​</tspan>彼所緣</text>
  <ellipse style="stroke: rgb(0, 0, 0); fill: rgb(0, 255, 224);" cx="184.217" cy="482.953" rx="4.581" ry="5.817"/>
  <ellipse style="stroke: rgb(0, 0, 0); fill: rgb(255, 0, 229);" cx="275.766" cy="483.013" rx="4.581" ry="5.817"/>
  <ellipse style="stroke: rgb(0, 0, 0); fill: rgb(255, 0, 0);" cx="37.31" cy="239.134" rx="4.581" ry="5.817"/>
  <ellipse style="stroke: rgb(0, 0, 0); fill: rgb(54, 0, 255);" cx="99.528" cy="190.262" rx="4.581" ry="5.817"/>
  <ellipse style="stroke: rgb(0, 0, 0); fill: rgb(54, 0, 255);" cx="113.3" cy="201.896" rx="4.581" ry="5.817"/>
  <ellipse style="stroke: rgb(0, 0, 0); fill: rgb(255, 0, 0);" cx="100.96" cy="214.53" rx="4.581" ry="5.817"/>
  <ellipse style="stroke: rgb(0, 0, 0); fill: rgb(255, 0, 0);" cx="216.216" cy="239.102" rx="4.581" ry="5.817"/>
  <ellipse style="stroke: rgb(0, 0, 0); fill: rgb(255, 0, 229);" cx="245.903" cy="300.974" rx="4.581" ry="5.817"/>
  <ellipse style="stroke: rgb(0, 0, 0); fill: rgb(255, 0, 0);" cx="270.604" cy="291.996" rx="4.581" ry="5.817"/>
  <ellipse style="stroke: rgb(0, 0, 0); fill: rgb(255, 0, 0);" cx="263.206" cy="166.221" rx="4.581" ry="5.817"/>
  <ellipse style="stroke: rgb(0, 0, 0); fill: rgb(255, 0, 0);" cx="148.699" cy="215.161" rx="4.581" ry="5.817"/>
  <ellipse style="stroke: rgb(0, 0, 0); fill: rgb(255, 0, 0);" cx="261.442" cy="127.091" rx="4.581" ry="5.817"/>
  <ellipse style="stroke: rgb(0, 0, 0); fill: rgb(255, 0, 0);" cx="158.725" cy="146.794" rx="4.581" ry="5.817"/>
  <ellipse style="stroke: rgb(0, 0, 0); fill: rgb(255, 0, 0);" cx="156.725" cy="82.752" rx="4.581" ry="5.817"/>
  <ellipse style="stroke: rgb(0, 0, 0); fill: rgb(255, 0, 0);" cx="229.273" cy="83.387" rx="4.581" ry="5.817"/>
  <ellipse style="stroke: rgb(0, 0, 0); fill: rgb(64, 255, 0);" cx="68.496" cy="154.682" rx="4.581" ry="5.817"/>
  <text style="fill: rgb(51, 51, 51); font-family: Arial, sans-serif; font-size: 12px; white-space: pre;" x="78.759" y="465.484">推度</text>
  <ellipse style="stroke: rgb(0, 0, 0); fill: rgb(255, 102, 0);" cx="60.457" cy="127.091" rx="4.581" ry="5.817"/>
  <ellipse style="stroke: rgb(0, 0, 0); fill: rgb(64, 255, 0);" cx="229.273" cy="127.091" rx="4.581" ry="5.817"/>
  <ellipse style="stroke: rgb(0, 0, 0); fill: rgb(64, 255, 0);" cx="229.273" cy="170.286" rx="4.581" ry="5.817"/>
  <ellipse style="stroke: rgb(0, 0, 0); fill: rgb(64, 255, 0);" cx="235.153" cy="300.974" rx="4.581" ry="5.817"/>
  <ellipse style="stroke: rgb(0, 0, 0); fill: rgb(0, 255, 224);" cx="63.334" cy="155.064" rx="4.581" ry="5.817"/>
  <ellipse style="stroke: rgb(0, 0, 0); fill: rgb(255, 0, 229);" cx="58.278" cy="155.138" rx="4.581" ry="5.817"/>
  <ellipse style="stroke: rgb(0, 0, 0); fill: rgb(255, 0, 229);" cx="117.002" cy="153.553" rx="4.581" ry="5.817"/>
  <ellipse style="stroke: rgb(0, 0, 0); fill: rgb(0, 255, 224);" cx="125.537" cy="153.553" rx="4.581" ry="5.817"/>
  <text style="fill: rgb(51, 51, 51); font-family: Arial, sans-serif; font-size: 12px; white-space: pre;" x="5.319" y="549.688">    安止        波,斷,轉,遍作,近行,隨順,種性,速行(禪那或道果)</text>
  <ellipse style="stroke: rgb(0, 0, 0); fill: rgb(121, 121, 121);" cx="135.462" cy="482.953" rx="4.581" ry="5.817"/>
  <text style="fill: rgb(51, 51, 51); font-family: Arial, sans-serif; font-size: 12px; white-space: pre;" x="33.907" y="417.361">見聽嗅嘗觸</text>
  <text style="fill: rgb(51, 51, 51); font-family: Arial, sans-serif; font-size: 12px; white-space: pre;" x="5.319" y="499.671">    五門    過,波,斷,轉,五識,領受,推度,確定,速行*7,彼所緣*2</text>
  <text style="fill: rgb(51, 51, 51); font-family: Arial, sans-serif; font-size: 12px; white-space: pre;" x="5.319" y="523.754">    意門        波,斷,轉,速行*7, 彼所緣*2</text>
  <ellipse style="stroke: rgb(0, 0, 0); fill: rgb(121, 121, 121);" cx="54.172" cy="57.79" rx="4.581" ry="5.817"/>
  <ellipse style="stroke: rgb(0, 0, 0); fill: rgb(121, 121, 121);" cx="54.861" cy="94.58" rx="4.581" ry="5.817"/>
  <ellipse style="stroke: rgb(0, 0, 0); fill: rgb(121, 121, 121);" cx="54.472" cy="81.946" rx="4.581" ry="5.817"/>
  <ellipse style="stroke: rgb(0, 0, 0); fill: rgb(121, 121, 121);" cx="54.472" cy="70.118" rx="4.581" ry="5.817"/>
  <ellipse style="stroke: rgb(0, 0, 0); fill: rgb(121, 121, 121);" cx="67.06" cy="105.375" rx="4.581" ry="5.817"/>
  <ellipse style="stroke: rgb(0, 0, 0); fill: rgb(121, 121, 121);" cx="124.54" cy="115.457" rx="4.581" ry="5.817"/>
  <ellipse style="stroke: rgb(0, 0, 0); fill: rgb(255, 102, 0);" cx="158.011" cy="482.891" rx="4.581" ry="5.817"/>
  <ellipse style="stroke: rgb(0, 0, 0); fill: rgb(0, 255, 224);" cx="68.794" cy="460.467" rx="4.581" ry="5.817"/>
  <ellipse style="stroke: rgb(0, 0, 0); fill: rgb(121, 121, 121);" cx="23.785" cy="412.153" rx="4.581" ry="5.817"/>
  <ellipse style="stroke: rgb(0, 0, 0); fill: rgb(54, 0, 255);" cx="106.48" cy="532.047" rx="4.581" ry="5.817"/>
  <ellipse style="stroke: rgb(0, 0, 0); fill: rgb(54, 0, 255);" cx="109.333" cy="482.953" rx="4.581" ry="5.817"/>
  <ellipse style="stroke: rgb(0, 0, 0); fill: rgb(255, 102, 0);" cx="22.148" cy="459.48" rx="4.581" ry="5.817"/>
  <ellipse style="stroke: rgb(0, 0, 0); fill: rgb(255, 0, 0);" cx="133.059" cy="506.972" rx="4.581" ry="5.817"/>
  <ellipse style="stroke: rgb(0, 0, 0); fill: rgb(255, 0, 229);" cx="182.083" cy="507.838" rx="4.581" ry="5.817"/>
  <ellipse style="stroke: rgb(0, 0, 0); fill: rgb(54, 0, 255);" cx="22.148" cy="442.837" rx="4.581" ry="5.817"/>
  <ellipse style="stroke: rgb(0, 0, 0); fill: rgb(255, 0, 0);" cx="21.986" cy="427.376" rx="4.581" ry="5.817"/>
  <ellipse style="stroke: rgb(0, 0, 0); fill: rgb(255, 0, 229);" cx="116.008" cy="462.31" rx="4.581" ry="5.817"/>
  <ellipse style="stroke: rgb(0, 0, 0); fill: rgb(64, 255, 0);" cx="94.177" cy="483.013" rx="4.581" ry="5.817"/>
  <ellipse style="stroke: rgb(0, 0, 0); fill: rgb(64, 255, 0);" cx="64.794" cy="482.953" rx="4.581" ry="5.817"/>
  <ellipse style="stroke: rgb(0, 0, 0); fill: rgb(64, 255, 0);" cx="79.34" cy="483.013" rx="4.581" ry="5.817"/>
  <ellipse style="stroke: rgb(0, 0, 0); fill: rgb(64, 255, 0);" cx="76.794" cy="532.047" rx="4.581" ry="5.817"/>
  <ellipse style="stroke: rgb(0, 0, 0); fill: rgb(64, 255, 0);" cx="91.34" cy="532.047" rx="4.581" ry="5.817"/>
  <ellipse style="stroke: rgb(0, 0, 0); fill: rgb(64, 255, 0);" cx="76.794" cy="506.972" rx="4.581" ry="5.817"/>
  <ellipse style="stroke: rgb(0, 0, 0); fill: rgb(64, 255, 0);" cx="88.614" cy="506.972" rx="4.581" ry="5.817"/>
  <ellipse style="stroke: rgb(0, 0, 0); fill: rgb(54, 0, 255);" cx="106.177" cy="506.972" rx="4.581" ry="5.817"/>
  <ellipse style="stroke: rgb(0, 0, 0); fill: rgb(255, 0, 0);" cx="236.216" cy="533.037" rx="4.581" ry="5.817"/>
  <ellipse style="stroke: rgb(0, 0, 0); fill: rgb(255, 0, 0);" cx="126.3" cy="533.037" rx="4.581" ry="5.817"/>
  <ellipse style="stroke: rgb(0, 0, 0); fill: rgb(255, 0, 0);" cx="151.221" cy="533.037" rx="4.581" ry="5.817"/>
  <ellipse style="stroke: rgb(0, 0, 0); fill: rgb(255, 0, 0);" cx="179.173" cy="533.037" rx="4.581" ry="5.817"/>
  <ellipse style="stroke: rgb(0, 0, 0); fill: rgb(255, 0, 0);" cx="205.379" cy="532.047" rx="4.581" ry="5.817"/>
  <rect x="113.061" y="537.864" width="108.568" height="28.898" style="stroke: rgb(0, 0, 0); fill: none; stroke-dasharray: 2;"/>
  <text style="fill: rgb(51, 51, 51); font-family: Arial, sans-serif; font-size: 12px; white-space: pre;" x="33.87" y="446.841">轉向,確定</text>
  <text style="fill: rgb(51, 51, 51); font-family: Arial, sans-serif; font-size: 14px; white-space: pre;" x="1.91" y="483.824">心路過程</text>
  <text style="fill: rgb(51, 51, 51); font-family: Arial, sans-serif; font-size: 12px; white-space: pre;" x="153.43" y="563.056">欲界心</text>
</svg>